<?xml version="1.0" encoding="utf-8"?>
<!-- Generator: Adobe Illustrator 26.0.1, SVG Export Plug-In . SVG Version: 6.00 Build 0)  -->
<svg version="1.1" id="Layer_1" xmlns="http://www.w3.org/2000/svg" xmlns:xlink="http://www.w3.org/1999/xlink" x="0px" y="0px"
	 viewBox="0 0 936 648" style="enable-background:new 0 0 936 648;" xml:space="preserve">
<style type="text/css">
	.st0{fill:none;stroke:#1F1B1B;stroke-width:9;stroke-miterlimit:10;}
	.st1{fill:none;stroke:#1F1B1B;stroke-width:4;stroke-miterlimit:10;}
	.st2{fill:none;stroke:#211818;stroke-width:4;stroke-miterlimit:10;}
	.st3{fill:none;stroke:#000000;stroke-width:4;stroke-miterlimit:10;}
	.st4{opacity:0.7882;fill:none;stroke:#1F1B1B;stroke-width:3;stroke-miterlimit:10;enable-background:new    ;}
</style>
<g id="Layer_3">
</g>
<g id="Layer_2_00000109750495668712462450000015545818067845325190_">
	
		<image style="display:none;overflow:visible;enable-background:new    ;" width="961" height="1280" xlink:href="838E640E.png"  transform="matrix(1.499 0 0 1.499 -264.604 -399.3753)">
	</image>
	<path class="st0" d="M42.1,639.7c-17,0-30.8-13.7-30.9-30.7L8.3,26.3c0-9.2,7.5-16.7,16.7-16.7l885.5-1.9c10.5,0,19,8.7,18.7,19.2
		l0.1,592.8c0.2,15.5-3.1,18.9-18.6,18.9L42.1,639.7z"/>
	<path class="st1" d="M72.7,533.8V99.4c0-20.6,16.7-37.3,37.3-37.3h720.4c20.6,0,37.3,16.7,37.3,37.3v434.4
		c0,20.6-16.7,37.3-37.3,37.3H109.9C89.4,571.1,72.7,554.4,72.7,533.8z"/>
	<path class="st2" d="M748.7,570.9v-509V570.9z"/>
	<circle class="st2" cx="817.1" cy="385.7" r="18"/>
	<circle class="st2" cx="817.1" cy="453.7" r="18"/>
	<path class="st3" d="M120.7,525.3V108c0-6,4.8-10.8,10.8-10.8h582.3c6,0,10.8,4.8,10.8,10.8v417.3c0,6-4.8,10.8-10.8,10.8H131.5
		C125.5,536.1,120.7,531.3,120.7,525.3z"/>
	<rect x="783.2" y="139.6" class="st4" width="48" height="48"/>
	<path class="st1" d="M791.6,638.8"/>
	<path class="st1" d="M168.6,639.6"/>
</g>
</svg>
