<?xml version="1.0" encoding="utf-8"?>
<!-- Generator: Adobe Illustrator 26.0.1, SVG Export Plug-In . SVG Version: 6.00 Build 0)  -->
<svg version="1.1" id="Layer_1" xmlns="http://www.w3.org/2000/svg" xmlns:xlink="http://www.w3.org/1999/xlink" x="0px" y="0px"
	 viewBox="0 0 1277 1009" style="enable-background:new 0 0 1277 1009;" xml:space="preserve">
<style type="text/css">
	.st0{fill:none;stroke:#000000;stroke-width:21;stroke-linejoin:round;stroke-miterlimit:10;}
</style>
<g id="Layer_3">
</g>
<g id="Layer_2_00000109750495668712462450000015545818067845325190_">
	
		<image style="display:none;overflow:visible;enable-background:new    ;" width="961" height="1280" xlink:href="84E2CF3E.png"  transform="matrix(1.499 0 0 1.499 -103.1785 -393.3753)">
	</image>
	<path class="st0" d="M330,645.5l-126.5,0.2c-12.6,0-23.5-7.6-28.3-18.4c-1.7-3.8-2.6-7.9-2.6-12.3l-2.9-582.6
		c0-9.2,7.5-18.7,16.7-18.7l885.5,0.1c10.5,0,19,8.7,18.7,19.2l9.2,583.6c0.1,5.3-1.3,10.2-3.8,14.5c-4.8,8.2-13.7,13.6-23.9,13.6
		L953,644.8L330,645.5z M218.1,855.1v79 M200.1,855.1v79 M181.1,855.1v79 M162.1,855.1v79 M143.1,855.1v79 M125.1,855.1v79
		 M106.1,855.1v79 M87.1,855.1v79 M68.1,855.1v79 M237.1,855.1v79 M255.1,855.1v79 M275.1,855.1v79 M294.1,855.1v79 M312.1,855.1v79
		 M331.1,855.1v79 M350.1,855.1v79 M369.1,855.1v79 M1210.9,675.6H52.4c-4.7,0-9.2,0.8-13.3,2.4c-14.9,5.4-25.5,19.7-25.5,36.4
		v240.4c0,21.4,17.4,38.8,38.8,38.9h1179.9c16.7,0,30.3-13.6,30.3-30.3V727.3c0-23.3-15.4-42.9-36.4-49.4
		C1221.3,676.4,1216.2,675.6,1210.9,675.6z M991.8,577.1c20.6,0,37.3-16.7,37.3-37.3V105.4c0-20.6-16.7-37.3-37.3-37.3h-81.7H271.4
		c-20.6,0-37.3,16.7-37.3,37.3v434.4c0,20.6,16.7,37.3,37.3,37.3h638.7H991.8z M1096,631.1l130.2,46.7 M910.1,68.1v-0.2 M910.1,68.1
		v508.8 M960.5,391.7c0,9.9,8.1,18,18,18s18-8.1,18-18s-8.1-18-18-18S960.5,381.8,960.5,391.7z M960.5,459.7c0,9.9,8.1,18,18,18
		s18-8.1,18-18s-8.1-18-18-18S960.5,449.8,960.5,459.7z M175.7,627.1l-0.5,0.2 M175.2,627.3L39,677.7 M39,677.7L39,677.7 M39,677.7
		l-1.3,0.5 M428.1,721.1c-8.3,0-15,6.7-15,15v207c0,8.3,6.7,15,15,15h762c8.3,0,15-6.7,15-15v-207c0-8.3-6.7-15-15-15 M292.9,542.1
		h582.3c6,0,10.8-4.8,10.8-10.8V114c0-6-4.8-10.8-10.8-10.8H292.9c-6,0-10.8,4.8-10.8,10.8v417.3
		C282.1,537.3,286.9,542.1,292.9,542.1z M82.6,826.6h63v-63h-63V826.6z M944.6,193.6h48v-48h-48V193.6z M428.1,721.1v198.5
		c0,8,6.5,14.5,14.6,14.5l729-1c8.5,0,15.5-6.8,15.6-15.3l2.8-196.7H428.1z M330,645.6l8.7,23.5h598l16.3-24.3l0,0"/>
</g>
</svg>
