<svg id="svg" xmlns="http://www.w3.org/2000/svg" viewBox="0 0 400.03 377.17"><defs><style>.cls-1,.cls-2{fill:#2a2a2a;}.cls-2{fill-rule:evenodd;}</style></defs><g id="svgg"><path class="cls-1" d="M281.68,397.34c-.8-.61-2.73-.7-3.07-.16-.13.21.31.67,1,1s1.21.94,1.21,1.32.23.35.78-.48C282.3,397.93,282.31,397.82,281.68,397.34Z" transform="translate(0.02 -22.84)"/><path class="cls-1" d="M369.46,392.19c-.27.7.78,3.41,1.32,3.41s.78-.63.35-2.32S369.89,391.07,369.46,392.19Z" transform="translate(0.02 -22.84)"/><path class="cls-1" d="M327.8,284.31l-.75.83c-3.2,3.56-14.14,7.15-24.51,8.06-6.27.55-7.23,1.57-4.5,4.8,2.1,2.49,1.82,3-1.37,2.38-2.29-.42-3.87-.25-3.87.43s1.19,1.05,3.15,1.35a37,37,0,0,1,4.87,1.32c5,1.69,5.87.13,2.14-3.93-2.77-3-2.57-3.36,2.24-3.91,12.9-1.46,23.36-6.26,22.73-10.43Z" transform="translate(0.02 -22.84)"/><path class="cls-1" d="M398.77,123.63l-1.25-1.3,1-1.07a3.47,3.47,0,0,0,1-1.66,17,17,0,0,1,.27-2.1c.27-1.41.23-1.5-.73-1.5a4.85,4.85,0,0,1-2.52-1.35,15.09,15.09,0,0,0-3.09-2.1c-3.62-1.7-3.2-3.67,1.45-6.92,3.82-2.67,5.22-4.42,5.06-6.31s-1.1-2.16-3.4-.51a11.89,11.89,0,0,1-3,1.62l-3.07.79a34.43,34.43,0,0,0-5,2c-8.88,4.35-15,6.35-19.59,6.37l-4.81,0c-2.68,0-8.23.31-11.28.59a11.58,11.58,0,0,1-4.18-.18,4.25,4.25,0,0,0-3.12.12,35.38,35.38,0,0,1-6.42.78,37.08,37.08,0,0,0-5.8.59,102.49,102.49,0,0,1-12.6,2,86.72,86.72,0,0,0-12.4,2.27,25.27,25.27,0,0,1-4.2.68l-2,.11,0-3.4a28.81,28.81,0,0,0-.49-5.2,18.18,18.18,0,0,1-.47-3.69,10.15,10.15,0,0,0-.57-3.2,36.08,36.08,0,0,1-2.24-9.27,24.63,24.63,0,0,0-.76-4.2,9.52,9.52,0,0,1-.58-2c-.77-4-6.33-11.67-8.51-11.67-2.36,0-2.75,1.57-1.15,4.66a20.76,20.76,0,0,1,1.56,13.48c-1.17,5.18-1.45,5.66-3.2,5.66H281l-.46-2.2c-.47-2.19-1.94-7.6-3.1-11.4A76.62,76.62,0,0,0,273,73.53a4.85,4.85,0,0,1-.64-2.36c0-1.56-.56-2.25-2.69-3.33a9.24,9.24,0,0,1-2.65-2.66c-2.31-3.43-9.61-7.32-14.46-7.71-1.54-.12-4-.42-5.4-.66-11.41-1.91-22.85-2.42-31.8-1.41-19.63,2.21-23,2.38-33,1.64-15.47-1.14-22.83-3.7-33.33-11.57-1.58-1.18-4.67-3.28-6.87-4.67-10-6.3-17.27-12.33-18.6-15.4-.59-1.38-.94-1.67-2.55-2.1-2.49-.67-2.8-.64-3.67.33-1.37,1.51-1.44,7.05-.21,16.55.52,4.07,1.2,7.43,1.66,8.31a3.16,3.16,0,0,1,.37,1.22,3.68,3.68,0,0,0,.7,1.5,15,15,0,0,1,1.36,3.59c.85,3.3.67,3.5-3.71,4.25-1.84.31-4.34.85-5.55,1.2a12.21,12.21,0,0,1-4.61.42c-2.78-.26-3.67-.07-9.27,1.9A28.13,28.13,0,0,1,92.85,64a4.33,4.33,0,0,0-2.44,1A15.45,15.45,0,0,1,86,67a10.52,10.52,0,0,0-4.33,2,31,31,0,0,1-4.42,3.12c-16.74,10.12-36,31.16-44,48a31.61,31.61,0,0,1-3.15,5.59c-1,.89-1.12,2.72-.24,3.45s2.94.06,5.79-1.45a11.76,11.76,0,0,1,2.09-1,10.43,10.43,0,0,0,2.1-1.37,12.67,12.67,0,0,1,2.7-1.65A14.36,14.36,0,0,0,45.41,122a27.7,27.7,0,0,1,7.79-4.09,45.62,45.62,0,0,1,6.8-2.3,27.18,27.18,0,0,0,3-.92c3.71-1.43,15.92-2.51,17.38-1.54.85.57-.49,2-2.21,2.27a40.42,40.42,0,0,0-6.65,3.46c-2.92,1.76-6,3.57-6.72,4s-2.84,1.76-4.6,2.9c-11.31,7.34-12.67,8.33-14.48,10.51-1,1.26-3.2,3.56-4.8,5.13-3.14,3.09-3.43,3.61-4.29,7.74a19.75,19.75,0,0,1-1.2,3.95c-.46.9-.63,2.42-.63,5.78,0,4.41-.07,4.77-2,10.72-1.11,3.39-2.47,8-3,10.29-3.05,12.91-11.85,19.86-27.67,21.88L0,202.08l.11,7.06L.2,216.2l4,.5c6.66.84,12.14,1.29,17.4,1.45,7.32.22,7.62.58,4.85,5.88a89.62,89.62,0,0,0-7.64,22c-.18,1-.62,3.06-1,4.6a68.92,68.92,0,0,0-1,17.7c.9,9.33.95,13.57.16,16.16-.83,2.76-.56,3.66,1.2,3.87s2.62-.9,2.62-3.27c0-1.64.41-2.86,2.18-6.44,1.2-2.43,3-6.26,4-8.51,2.58-5.85,5.94-10.11,16.62-21.05,7.94-8.14,8-8.14,10.84-5.68a10.29,10.29,0,0,0,3.33,2c4.57.9,15,4.55,16.34,5.7.78.69.64,1.8-.53,4.1-2.45,4.81-2.56,21.7-.18,26.4.5,1,1.65,3.33,2.54,5.21,4,8.39,10.44,16,13.54,16,2.32,0,2.84.28,3.61,1.89,3.75,7.9,15,12.28,16.55,6.45.55-2.05,1.43-2,2,.16a5.45,5.45,0,0,1,0,3.5,25.37,25.37,0,0,0-.69,3.58c-.19,1.84-2.94,5.8-3.83,5.51a6.8,6.8,0,0,1-1.16-2.5c-2.12-6.54-4.7-7.37-4.59-1.49.09,4.74-.43,6.63-2.51,9.15l-.39.5a48.27,48.27,0,0,1-1.16,6.53c0,.16,0,.31,0,.48-.05,2.58-.71,5.1-.79,7.68a23.44,23.44,0,0,0,4.61,14.42,4.36,4.36,0,0,1,.91,3c1.52.3,2.63,3.32,1.25,3.76a13.34,13.34,0,0,0-2.5,1.52,50.32,50.32,0,0,1-7.4,4.49A11.35,11.35,0,0,0,90.79,373a3.11,3.11,0,0,1-2,.59c-1.67,0-2,.28-4.35,3.34a6.15,6.15,0,0,1-2.59,2.18c-2.74.75-4.11,7.55-3.51,17.38l.22,3.5h7.34c8.42,0,7.86.37,6.34-4.16s-.59-11.44,1.43-11.44a3.14,3.14,0,0,0,1.24-.87,28.71,28.71,0,0,1,4.7-2.81,22.45,22.45,0,0,0,4.83-3.09,19.64,19.64,0,0,1,4.52-2.84,14,14,0,0,0,3.93-2.49c1.13-2.11,7.52-3.48,8.94-1.91a5.88,5.88,0,0,0,4.87,1.43c3-.57,3.93,1,2.39,4.09a16.2,16.2,0,0,0-1.21,3.38,9.64,9.64,0,0,1-1.65,3.29,11.14,11.14,0,0,0-1.64,2.88,11.06,11.06,0,0,1-.81,2.11,5.49,5.49,0,0,0-.54,2.07,30.62,30.62,0,0,1-2.22,8.25c-1.2,1.82-.24,2.11,7.07,2.11h6.52l1.41-1.36c1.37-1.3,4.06-3.24,9.62-6.91,1.43-1,3.92-2.65,5.54-3.77,5.16-3.61,5.15-3.63,2.85,5-2,7.57-2.07,7,.78,7s2.85-.05,3-4.94c.33-8.38,6.17-20.66,9.59-20.17.93.13,7,10,7,11.37s1.89,7.42,3.39,10.64l1.43,3.1h5.13l.13-1.48c.13-1.57,2.14-3.28,8.19-6.92A31.37,31.37,0,0,0,196.4,389c2-1.76,4.29-3.06,4.58-2.61.13.21-.51,1-1.42,1.71-3.19,2.57-9.37,8.07-9.89,8.8-1.37,1.93.44,3.55,2.08,1.86,6-6.2,16.24-13.65,16.26-11.83,0,4.08-4,9.45-8,10.66-8,2.4-8,2.39,10,2.4,16.36,0,20.82-.24,23-1.3a43.88,43.88,0,0,1,5.8-1.65c2.53-.59,5.41-1.34,6.4-1.67s2.7-.85,3.8-1.16,4.16-1.3,6.8-2.2l4.8-1.64,5.6.21c6.47.25,10.75,1,14,2.43a12.65,12.65,0,0,0,3,1,7.25,7.25,0,0,1,2.05.55A45,45,0,0,0,291.8,397a16.74,16.74,0,0,1,3.09,1.2c3.56,1.78,4.68,1.83,39.71,1.71l33.2-.12,0-3.2c0-2.15-.14-3.41-.5-3.83a17.43,17.43,0,0,1-1.56-3.2c-.57-1.41-1.29-3.14-1.6-3.83a6.74,6.74,0,0,1-.58-1.64,2.45,2.45,0,0,0-.8-1.1c-.91-.82-1.07-2.2-.26-2.2,1.69,0,2.33-2.5,1-4.12a12.39,12.39,0,0,1-1.42-2.5c-.57-1.37-.66-1.42-1.32-.82-2.42,2.18-8.79-1.46-9.23-5.27-.22-1.85-.26-1.9-2.28-2.62-2.64-1-3-1.93-1.25-3.55a3.51,3.51,0,0,1,2.07-1.07c1.25.13,4.24-.9,4.24-1.47,0-.27-.3-.47-.67-.44s-.77-.36-1-1.21a15.54,15.54,0,0,0-1.11-3c-1.05-2.12-.46-2.75,1.24-1.32a4,4,0,0,0,1.82,1c1.31,0,3.27,1.54,3.27,2.57,0,1.32,1.38,3.51,3.9,6.17q2.1,2.22,2.1,3.24a5.67,5.67,0,0,0,1.83,3.74c.65.37,3.77,6.62,3.77,7.58a10,10,0,0,0,.77,2.43c1.29,3,1.48,5.31.47,5.85-1.27.68-1.06,1.62.35,1.62,1,0,1.24.2,1.43,1.1a7.7,7.7,0,0,0,.64,1.85c.77,1.42,1.4,4.54,1.08,5.4-.38,1,0,2.05.68,2.05a3.78,3.78,0,0,1,1.62,1c1,1,1.25,1,6.78,1h5.7l-.37-1.5c-.88-3.64-.89-3.53.41-4.85,1.44-1.48,1.88-2.85,1.27-4a7.18,7.18,0,0,1-.43-2.58,12.52,12.52,0,0,0-.6-3.48,10.54,10.54,0,0,1-.6-2.5,7.67,7.67,0,0,0-1.44-2.76,18,18,0,0,1-2.23-4.6,10.65,10.65,0,0,0-2.34-4.3,14.57,14.57,0,0,1-2.39-4,18.54,18.54,0,0,0-2.53-4.33c-.92-1.13-2.08-2.66-2.57-3.39a4.17,4.17,0,0,0-1.85-1.58c-1.33-.34-2.68-2.34-3.65-5.38l-.83-2.6-5-2.49a35.23,35.23,0,0,0-13.19-4.12,92.25,92.25,0,0,1-13.8-3.27c-10.15-3-11.66-3.42-12.63-3.65a11.05,11.05,0,0,1-2.9-1.68l-1.87-1.43v-2.64a7.21,7.21,0,0,0-1-4.32,28.84,28.84,0,0,1-2.49-8c-.32-1.94.55-2.36,4.59-2.23a46.11,46.11,0,0,1,8.89.8c1,.21,3.95.59,6.59.83a104.75,104.75,0,0,1,11,1.47,7,7,0,0,1,2.51,1.86c3.31,3.58,7.1,1.47,7.94-4.43a15.38,15.38,0,0,1,.91-3.6c1.09-2.11.52-8-1.08-11.15a37.85,37.85,0,0,1-1.67-3.73,31.34,31.34,0,0,0-1.88-3.78,19.67,19.67,0,0,1-1.81-4A8.89,8.89,0,0,0,350.9,286a3.54,3.54,0,0,1-.78-2.62c.22-1.44-.09-2.08-2.48-5.18-1-1.31-2.2-3-2.64-3.65-2-3.26-3.05-4.57-3.82-5a8.29,8.29,0,0,1-2-2.27,9.44,9.44,0,0,0-2.39-2.58,4.15,4.15,0,0,1-1.45-1.33,8.76,8.76,0,0,0-2.19-2c-2.45-1.76-2.45-2.21,0-3.79,1.93-1.24,9.42-8.68,11.28-11.21,1.29-1.74,3.58-3,7.58-4.22,5.13-1.54,5.63-3.16,1.06-3.46a12.83,12.83,0,0,1-5.12-1.45,13,13,0,0,0-3.7-1.28c-2.49,0,.35-1.62,5.67-3.23a16.93,16.93,0,0,0,5.35-2.73c1.32-1,3.53-2.65,4.92-3.64,11.28-8.06,13.68-11.19,14.17-18.52l.26-3.91,5.85-5.89c9.41-9.48,11.13-12.19,15.5-24.54.59-1.68,1.38-3.69,1.74-4.46a7.25,7.25,0,0,0,.67-1.83,5.56,5.56,0,0,1,.79-1.72c.75-1.24.78-2.14.8-20.95l0-19.65ZM324.41,353.41c-.59-.71-1.19-3.11-1.49-5.91-.23-2.25.37-2.47,3-1.07a13,13,0,0,0,3.81,1.05c2.38.25,3.51,1,2.69,1.82s-.54,1.1.54,1.1c.62,0,1-.23,1-.6s.36-.6.8-.6.8.17.8.37c0,1.4,3.27,2.26,3.76,1,.19-.48.56-.58,1.55-.38.71.14,2.21.41,3.34.6,3.06.52,5.75,1.82,5.75,2.78,0,2.55-1.84,3.93-2.08,1.55-.11-1.2-.26-1.33-2-1.66-2.83-.55-3.46-.14-2.17,1.39s1.3,2.6.41,3.88c-1.14,1.63-2.7.81-1.77-.92s.16-2.51-1.14-1.25c-1.71,1.63-5.54,1.51-6.17-.21-.29-.78-1.9-.55-1.9.27,0,.57-.87,1-2,1a16.32,16.32,0,0,0-3.75,1.6c-4.05,2.14-4.83,2.12-3.81-.14.38-.82.31-1.11-.47-1.89l-.91-.91,1.33-1.11C324.73,354.2,324.85,353.94,324.41,353.41ZM348.22,146.8c.32,0,.58.19.58.41,0,.48-1.13,1-1.46.67S347.59,146.8,348.22,146.8ZM334.73,134c1.52-1.2,5.2-.95,6.7.45,5.41,5.05,1,11.87-5.65,8.83C331.34,141.23,330.86,137,334.73,134ZM323,159.6a.6.6,0,1,1-.6.6A.6.6,0,0,1,323,159.6Zm-14.34-34.52c.48-.49.83.11.64,1.11-.1.55-.35.9-.55.78A1.67,1.67,0,0,1,308.66,125.08Zm-5,40.59a1.3,1.3,0,0,1,.71.71c.09.29-.05.45-.35.34a1.21,1.21,0,0,1-.7-.7C303.17,165.72,303.33,165.58,303.62,165.67Zm-30.87-88.3a4.32,4.32,0,0,1,.85,1.43c.6,1.45.18,2.13-.63,1C272.35,79,272.18,77,272.75,77.37Zm-1.52-2.49a1.22,1.22,0,0,1,.69.7c.11.3,0,.45-.34.34a1.21,1.21,0,0,1-.7-.7C270.78,74.92,270.92,74.78,271.23,74.88ZM132.55,41.38c.27-.71.73-.74,1.37-.1s.57,1.52-.3,1.52S132.24,42.19,132.55,41.38Zm-2.73-2.92a1.25,1.25,0,0,1,.89.68c.12.34-.07.49-.53.4a1.25,1.25,0,0,1-.89-.68C129.17,38.52,129.36,38.37,129.82,38.46Zm-57,69.07c-6.69,0-9.42.18-10.8.61-1,.33-2.57.77-3.45,1a70.6,70.6,0,0,0-12.4,5c-2.42,1.23-4.44,2.24-4.5,2.24-.34,0,0-1.53.51-2.18a3.51,3.51,0,0,0,.59-1.86c0-.71.67-1.91,1.91-3.43,1.06-1.28,2.41-3.09,3-4s1.26-1.7,1.47-1.7.84-.67,1.39-1.48c1.66-2.45,8.63-9.71,10-10.39a12.3,12.3,0,0,0,2.25-1.55C65.48,87.32,69.72,84,70.19,84A23,23,0,0,0,73,82.3c1.4-.94,4-2.6,5.82-3.7s4.38-2.7,5.73-3.56c2.25-1.43,5.2-2.65,12.26-5.07,1.43-.5,3.23-1.13,4-1.42,1.39-.52,5-1.2,11.6-2.16a30.84,30.84,0,0,0,5.29-1.24,5.42,5.42,0,0,1,2.49-.5,5.74,5.74,0,0,0,2.69-.81,9.89,9.89,0,0,1,3.2-1c1.16,0,4.66-2.26,4.71-3a5.53,5.53,0,0,0-1.36-1.91,9.34,9.34,0,0,1-2-3.76c-1.78-6.19-2.67-9.2-3.07-10.29-1.18-3.25-.77-6.13.71-5.09a8.75,8.75,0,0,1,1.34,2.09c1.1,2.17,6.89,8,7.94,8s1.84-2.32,1.48-3.73.34-1.64,1.89-.84a92.56,92.56,0,0,1,11.51,8.21,14.91,14.91,0,0,0,3.22,2.36,18.06,18.06,0,0,1,2.86,1.8,30.63,30.63,0,0,0,5.8,2.58c2.61.94,5.55,2,6.54,2.44a19.28,19.28,0,0,0,5.4.94A60.43,60.43,0,0,1,184.2,64c2.91,1,16.37.43,19.53-.77a30.66,30.66,0,0,1,8.55-1.07,47.75,47.75,0,0,1,7.84-.87,5,5,0,0,1,2.26.46,85.6,85.6,0,0,1,18.42,1.46,46.52,46.52,0,0,0,6.14.79c5.46,0,13.92,4.41,15.86,8.27.31.62.87,1.58,1.23,2.13a12.45,12.45,0,0,1,1.16,2.6,85.82,85.82,0,0,0,3.44,8.66,7.45,7.45,0,0,1,.59,2.8,16.59,16.59,0,0,0,1.44,6.14,11.09,11.09,0,0,1,.65,3.05,12.93,12.93,0,0,0,1,3.8c1,1.92,1.41,4.12.95,4.71-.76,1-.76,1.83,0,3.24s.35,6.86-.89,10.09c-.66,1.77-.13,2.51,1.81,2.51,3.3,0,8.34-4.52,11.45-10.25,4.15-7.65,8.34-5.72,4.81,2.22a29.8,29.8,0,0,0-1.4,3.69c-.3,1.38-3.34,3.61-6.23,4.55-1.21.39-3.85,1.5-5.87,2.45a22.23,22.23,0,0,1-4.46,1.74c-1.27,0-4.47-1.52-4.47-2.11,0-2.94-3.21-7.85-6.12-9.35a52.72,52.72,0,0,1-4.41-3c-6.07-4.55-7.27-5.37-8.62-5.91a10.31,10.31,0,0,1-2.46-1.46c-2.89-2.43-11.7-5.24-19.19-6.12-4.37-.51-10.14-1.33-17-2.42-7.76-1.23-12.82-1.6-27-2-23.47-.62-31.17-2.43-41.95-9.89-5.15-3.56-5.15.17,0,8.36,1.5,2.37,1.4,3.67-.27,3.86-2.41.27-3,2-1.16,3.69a19.84,19.84,0,0,1,2.27,2.77c1.51,2.24,9.32,10.4,10.68,11.17a35.14,35.14,0,0,0,3.77,1.6c2.58,1,3.95,2.05,3.35,2.65a80.2,80.2,0,0,1-9.39-.42c-5-.37-11.73-.75-14.92-.84-11-.33-15.94-1.33-29.4-5.95a86.93,86.93,0,0,1-12.5-5.51c-7.4-3.73-7.28-3.72-8.87-.89S83.26,107.49,72.85,107.53ZM256.4,125l1,1-1.12,4.28c-2.6,10-6.41,16.73-12.5,22.21-3.63,3.27-9.24,7.47-10,7.47-.4,0-7.72,2.91-10.59,4.21-1.65.74-4.35,1.81-6,2.36s-4.8,1.63-7,2.41a25.2,25.2,0,0,1-5.65,1.41,25.14,25.14,0,0,0-3.64.39c-6.16,1.17-20.14.59-25.71-1.06L169.38,168c-7-2-13.35-6.37-18.71-12.74a62.46,62.46,0,0,0-4.8-5.09,12.58,12.58,0,0,1-2.36-2.61,3.82,3.82,0,0,0-1.92-1.41c-2.75-1.1-6.76-6.68-6.78-9.45,0-1.28.62-1.37,4.59-.67a186.75,186.75,0,0,0,25.5,2.32c4.31,0,5.78-.51,2.6-.92-5-.64-9.25-1.06-12.1-1.2a25.34,25.34,0,0,1-4.6-.6,12.63,12.63,0,0,0-3-.43,43.65,43.65,0,0,1-5.6-.77c-8.21-1.57-11.25-2.08-13.79-2.3l-2.61-.22,1.68,1.26c2.31,1.75,4.35,4.65,6.75,9.62a51.87,51.87,0,0,0,25.39,25,90.74,90.74,0,0,0,29,7.64c6.78.57,5.32,1.3-8.67,4.36-.36.07-4.14,0-8.41-.21-7.53-.33-11.52-.74-23.55-2.43-8.1-1.13-15.09-.8-31.2,1.49-2.31.33-5.57.77-7.25,1A28.68,28.68,0,0,0,104,181a59.74,59.74,0,0,1-5.75,1.78,60.47,60.47,0,0,0-11.43,3.65,15.22,15.22,0,0,1-3.15,1.22c-1.13,0-9.84,5.51-12.82,8.11-6,5.27-5.76,2.2.63-7.09A65.06,65.06,0,0,1,86.75,172.8c2.07-1.43,4.93-3.55,6.37-4.72a94.21,94.21,0,0,1,19.48-11.74c7-3.15,7-3.26,1.87-7.64-4.42-3.76-12.65-13.86-15.89-19.5-.69-1.21-2.53-4.27-4.09-6.8s-3.76-6.62-4.91-9.08c-2.84-6.12-2.28-7.22,2-4,5,3.78,12.34,6.57,23.19,8.84l6.8,1.43c8.46,1.78,11.81,2,20.28,1.61a215.07,215.07,0,0,1,26.57,0,54.63,54.63,0,0,0,7.43.18c1.3-.49-.44-1.45-3.45-1.9-3.32-.49-6.73-2.47-11.24-6.51a39.16,39.16,0,0,0-3.7-3,42.39,42.39,0,0,1-8.41-8.08c-.78-1.17-2.06-3-2.85-4.12-2.35-3.28-2-4.4,1.06-3,5,2.25,6.67,2.92,8.31,3.22,1,.18,3.51.69,5.6,1.13,4.74,1,13.56,1.67,22.08,1.67A230,230,0,0,1,211.8,103l10.4,1.42c10.35,1.39,16.29,3.09,24.4,7,2.64,1.27,11.51,6.61,11.89,7.16.85,1.22-.19,4.61-1.41,4.63C255.68,123.22,255.41,124,256.4,125Zm-66.22,57.83c-4,1.61-6.28,3-7.22,4.19l-1.05,1.38h-6.67c-9.54,0-13.42-1.1-13.16-3.73.15-1.6,1.34-1.87,9.12-2.06,3-.08,7.2-.31,9.4-.51,5.46-.51,9.48-.56,10.18-.12C191.24,182.27,191.11,182.45,190.18,182.83Zm-40.81,26.38.28,2.81-1.79.79a17.3,17.3,0,0,1-3,1l-1.23.25.25-4.95c.28-5.37-.15-6.72-1.79-5.69-.85.54-1.16,6.74-.46,9.12s-.93,3.18-3.74,1.73c-.67-.34-.68-.43-.1-1.07.82-.91.8-1.67-.14-4.94s-1.82-11.35-1.49-13.38c.46-2.86,1.77-3.44,4.83-2.13,2,.85,2.05,1,1.38,3.23-.58,1.91-.19,3.58.82,3.58.54,0,.91-.49,1.29-1.7.74-2.32,1.62-2.38,3.79-.25,1.53,1.5,1.75,1.94,1.75,3.43s.14,1.8,1.55,2.69a3.09,3.09,0,0,1,1.65,3.83c-.35,1.47-1.48,1.48-2.3,0C149.64,205.42,149.06,206,149.37,209.21Zm-35.71-14.66c2.77-2.55,3.75-2.71,4.56-.76a5.52,5.52,0,0,1-.13,5c-.84,1.71-6.08,8.79-6.51,8.79a8.26,8.26,0,0,0-1.77,2c-1.88,2.55-3.5,3.08-7.59,2.45-6.29-1-7.81-1.95-7.83-5.12a13.29,13.29,0,0,0-1-4.32c-1.78-4.32-1.4-4.8,3.43-4.37C104.22,198.87,110.43,197.51,113.66,194.55Zm-15.94-6.79c-.21-.65,3.57-2.2,7.28-3s4.66-.79,4.9,0c.1.29-.48.76-1.36,1.11s-2.46,1.07-3.59,1.62C102.78,188.51,98,188.71,97.72,187.76Zm-9.67-29.4a34.09,34.09,0,0,0,2-4.25c0-2.55,9.72-16.15,11-15.4.27.16,2.34,2,4.6,4.2,3.88,3.7,4.11,4,4.3,5.8a6.54,6.54,0,0,0,.6,2.38c.72.92,0,1.66-3.38,3.27-3.67,1.76-12.49,7.44-18.23,11.74C82.82,170.64,82.65,169,88.05,158.36ZM57.88,239.49c-.78-.26-.74-1,.09-1.87s1.83-1.06,2.27-.35C60.57,237.8,58.54,239.71,57.88,239.49Zm3.55-9.89c-1.73,0-5.27,1.8-7.43,3.77a31.59,31.59,0,0,1-3,2.23,36.88,36.88,0,0,0-4.39,3.76c-1.34,1.34-3.2,3.09-4.15,3.87a47.83,47.83,0,0,0-4.74,5.2c-3.16,3.94-7.68,9.26-10.28,12.11a31.6,31.6,0,0,0-3.55,5.86c-2.85,5.92-3,6.18-3.68,6.32-1.77.37-1.28-6.21.59-8l1.28-1.19-.25-3.44a12.33,12.33,0,0,1,.16-4.19,13.78,13.78,0,0,0,.54-3.65,54.53,54.53,0,0,1,2.07-11.78,42,42,0,0,0,1-4.27c0-3.22,4.89-14.73,8-18.86,4-5.23,3.61-6.08-2.26-5.56-4.48.4-6.87.4-16,.06C.75,211.33.88,211.57,12.3,206a32.76,32.76,0,0,0,8.29-5.35,17.85,17.85,0,0,1,4.56-3.2c2-.39,6.94-9.12,8-14.07.29-1.32.87-3.47,1.28-4.78a16.38,16.38,0,0,0,.77-3.6,17.32,17.32,0,0,1,1-4c.55-1.54,1.36-4.21,1.8-5.93.8-3.07,1.48-4.58,6.26-13.87,5.38-10.46,8.1-14,16.59-21.54,7.1-6.31,7.79-6.78,14.53-10,9.88-4.79,9.4-4.79,11.77-.07,1.69,3.37,8.62,13.78,10,15,1.15,1,1.06,1.71-.35,2.44-6.36,3.29-13.22,15.33-16.17,28.4-1.67,7.42-3.22,11.18-5.34,12.94-4.89,4.08-11.2,13.78-12.7,19.53-.61,2.33-.43,6.53.27,6.53s3.7-1.69,7.13-4c8.6-5.74,10.91-6.49,12.68-4.14a41.24,41.24,0,0,0,2.82,3.18c2.93,2.94,2.11,6.95-1.29,6.32a21.1,21.1,0,0,0-4.61.25c-1.87.26-4.15.53-5.08.6a7.62,7.62,0,0,0-2.45.53c-1.4.75-8.13,2.06-9.41,1.84s-2.06.09-5.58,2.4c-1,.66-2.75,1.74-3.87,2.4-5.09,3-6.23,4.54-6.53,8.88-.13,1.77,2.94,1.85,5.1.13,1.11-.88,1.79-1.15,2.38-1s1.4.4,2.09.56c2,.44,7.35,4.51,7.35,5.54C63.6,229.17,63,229.6,61.43,229.6Zm4.31,5c-.24.64-2,1.26-2.42.86S64.09,234,65,234C65.71,234,65.91,234.17,65.74,234.6Zm6.69,8.82a14.79,14.79,0,0,0-3.83-1.92c-3.64-1.06-2.82-2.35,3.3-5.17,4-1.86,4.38-2.39,3-4.34a24.13,24.13,0,0,1-1.52-2.69c-.85-1.75-3.83-3.76-12.16-8.21-4.1-2.19-3.68-3.09,1.83-3.87a12.57,12.57,0,0,0,3.86-1.16A9.61,9.61,0,0,1,69.8,215c.88-.14,2.82-.54,4.3-.89a9.31,9.31,0,0,1,5.06-.12c2.2.47,2.47.44,3.93-.38,3-1.71,6.3-.16,7.52,3.59.92,2.83,3,6.83,3.7,7.1,1.44.55,1.25-.73-.69-4.7-3.11-6.37-2.61-8.41,1.63-6.64a29.12,29.12,0,0,0,5.35,1c5.51.66,5.45.57,3,4.4a57,57,0,0,0-3.17,5.84l-1.53,3.32-4.53,2.27c-4.47,2.24-4.64,2.38-11.21,9C75.59,246.48,76.23,246.21,72.43,243.42ZM105,310c-1.34,1.11-7.3-2.7-8.81-5.62-.79-1.53-.34-1.75,3.92-1.89,2.79-.1,3.45,0,4,.6C105.47,304.65,106.06,309.12,105,310Zm4.19-7.79c1.1-1.32,7.56-1.34,10.52,0s3.1,1.7.19,2c-1.37.15-3.27.44-4.21.64C112.31,305.57,107.89,303.78,109.19,302.21ZM120.8,251a12,12,0,0,0,5.34,1.35h2.35l-.28,1.1c-.47,1.86-.93,2.16-2.27,1.47s-2.6-.45-2.93.61c-.45,1.41-1.13,1.62-3,1a7.49,7.49,0,0,0-3.48-.36c-3,.45-11.31-8.46-9.72-10.38a1.43,1.43,0,0,1,2.29,0c.64,1.13,1.36.79,2.43-1.17s1.23-2,2.89-2.24a19.77,19.77,0,0,0,2.2-.37,3.29,3.29,0,0,1,1.56.43c1.07.52,1.2.49,1.75-.33.72-1.1,1.53-1.14,2.08-.12a1.87,1.87,0,0,1-.45,2.73C116.62,248.67,116.56,249.16,120.8,251Zm3.33-6.26c-1-2.05.86-3.83,2.57-2.4,1.16,1,1.14,1.07-.38,2.35S124.74,246,124.13,244.78Zm1.34,5.22c-.65,0-1.13-1.37-.79-2.26s1.11-.36,1.24,1C126,249.63,125.88,250,125.47,250Zm.49,19.71a.76.76,0,0,1,.44-1.31.93.93,0,0,1,.62.43C127.43,269.5,126.51,270.27,126,269.71Zm-7.13,61.7a11.52,11.52,0,0,0-3-.61c-1.41,0-2.07-.54-2.21-1.8-.45-4.27,1.45-4.95,5.82-2.09C123.1,329.33,122.65,332.76,118.83,331.41ZM160.6,373A73.93,73.93,0,0,1,152,379.6a18.62,18.62,0,0,0-2.85,2.25,46.68,46.68,0,0,1-4.9,3.71c-1.67,1.08-3.71,2.5-4.53,3.15a15.86,15.86,0,0,1-4.28,2.49c-.53,0-.14-1.78.78-3.59a40,40,0,0,0,2-5.46c1.46-5,3.89-7.31,7.82-7.33a7.34,7.34,0,0,0,3-.45,6.82,6.82,0,0,1,2.78-.53A20.82,20.82,0,0,0,159.9,372C162.41,370.7,162.71,371.12,160.6,373Zm50.6,3.14c-1.65.94-4.94,2.86-7.31,4.27l-6.67,4a32.89,32.89,0,0,0-3.89,2.75c-2.07,1.81-9.23,6.45-10,6.45s-1.44-1.8-1.29-3.38c.13-1.28,2.25-2.67,12.12-7.92,8-4.23,9.55-5.14,14.54-8.28,7.39-4.64,9.11-5.15,7.93-2.32C216,373.28,215.44,373.74,211.2,376.16Zm98.51,14.71-5.31-2.05a69.09,69.09,0,0,0-7.52-2.42,29.26,29.26,0,0,1-4.11-1.22c-1.24-.66-6.41-1.89-10-2.39a20.12,20.12,0,0,1-4.07-.86c-3.28-1.76-23.72-.11-28.44,2.3a58.72,58.72,0,0,1-17.49,5.41,31.45,31.45,0,0,0-4.25,1,11.31,11.31,0,0,1-2.85.58A17.18,17.18,0,0,0,222,392c-2.78.89-6.73,1.43-7.71,1.05-1.39-.53,3.25-7.71,7.93-12.27,5.82-5.67,13.49-14,17.41-18.83,3.77-4.67,12.87-13.8,15.62-15.68a40,40,0,0,0,3.34-2.59c2.13-1.9,6-.43,8.91,3.33,1.62,2.12,3.87,2.7,9.07,2.34l3.68-.25,3.15-3.26c3.43-3.56,4.8-6,5.69-10.21.79-3.73.89-3.8,5.17-3.54a55.88,55.88,0,0,1,6.87.91c6.65,1.43,7.27-1.08,2.26-9.27-4.06-6.65-3.89-6.23-2.9-7.05s.85-.85,3.56.05c4.29,1.41,7.13,9,4.53,12.06l-1.07,1.27.64,3.34a14.25,14.25,0,0,0,1.5,4.5c1.6,2.16,2.59,17.88,1.47,23.08-1.62,7.47-1.36,13.2,1.16,25.08C313.24,390.82,312.63,392,309.71,390.87Zm16.38-135a20.17,20.17,0,0,1-3.36,1.76c-2.78.93-3.05,1.94-.83,3.09,4.71,2.42,14.1,11.86,15.06,15.15a15,15,0,0,0,1.68,3.8,16.67,16.67,0,0,1,1.57,2.69,18.19,18.19,0,0,0,.9,1.85l1.73,2.61a15.82,15.82,0,0,1,1.93,4.35,36.46,36.46,0,0,0,2.32,6c2.24,4.64,2.9,7,2.9,10.57a11.67,11.67,0,0,0,.41,3.48c.76,1.42-1.54,2.88-3.17,2a20.81,20.81,0,0,0-3.52-1,25.58,25.58,0,0,1-5.28-1.84,31.62,31.62,0,0,0-5.36-2c-1.58-.4-3.68-1-4.67-1.41-3.32-1.25-4.56-1.39-14.2-1.64-11.08-.28-12.6,0-12.6,2.22,0,1.44-1,2.12-4,2.81-7.69,1.74-8.1,4.6-1.61,11.37,4.51,4.71,4.64,4.59-3.62,3.45-6.55-.9-8.23.25-9.26,6.37A21.73,21.73,0,0,1,278.83,342l-1.08,1.29-2.66-1.48a10.52,10.52,0,0,1-3.48-2.82c-1-1.63-1.64-1.93-4.23-2a9.72,9.72,0,0,1-3.6-.87l-4-2a36.83,36.83,0,0,0-6.37-2.28,19.57,19.57,0,0,1-5.23-2,8,8,0,0,0-2.74-1.24c-5.51-1,2.18-4.48,20-9,10.75-2.71,17.49-6.77,19.3-11.61.28-.77,1.15-2.84,1.93-4.6,1.74-3.93,3.68-8.64,6.93-16.8,1.37-3.47,4-11.58,4-12.4,0-1.49,1.12-1.51,5.69-.07,12.57,3.95,27.95,6.62,28.94,5,.41-.66-.51-1.06-3.2-1.36-1.34-.15-4.95-.82-8-1.48s-6.77-1.43-8.2-1.72a98.06,98.06,0,0,1-10.44-2.66c-4.52-1.43-5.93-.82-6.93,3a44.88,44.88,0,0,1-2.06,5.57c-.8,1.8-2.22,5.52-3.15,8.27-3,8.87-9.37,20.42-13.12,23.87-3.19,2.93-4.71,3.51-9.4,3.54-3.59,0-4.24.15-5.2.91-2,1.56-3,2-7.9,3.05A74.47,74.47,0,0,0,242,323.8c-1.21.51-3.82,1.56-5.8,2.34a73.82,73.82,0,0,0-11,5c-1.44.83-6.22,3.47-10.62,5.85-6.5,3.53-8.47,4.8-10.5,6.81a25.74,25.74,0,0,1-5.4,4,19.88,19.88,0,0,0-4.19,2.86c-1.21,1.27-6,3.56-9.69,4.61a9.42,9.42,0,0,0-2.6,1.29c-2.06,1.51-10.21,5.42-11.3,5.42a5.54,5.54,0,0,0-2.34.82c-7.19,4.44-22.1,6.24-25.64,3.09-1.31-1.17-6.28-2.32-10.94-2.52-3.38-.15-4.41-.34-5.28-1s-1.72-.8-3.6-.81-2.77-.21-3.52-.79a4.68,4.68,0,0,0-2.8-.8c-1.87,0-2.25-.21-7.65-4-5-3.47-5.6-4.1-7.21-7.41a17.08,17.08,0,0,1-1.54-4.12,5.92,5.92,0,0,0-.65-2.2c-1.37-2.65-.14-7.89,2.55-10.88.83-.92,1.9-2.15,2.4-2.74a3.13,3.13,0,0,1,1.3-1.08c.67,0,2.4,4.37,2.4,6,0,2.88,0,2.87,13.2,5,2.31.37,5.37,1,6.8,1.42a49.52,49.52,0,0,0,5.33,1.17c1.5.23,3.75.69,5,1,11.48,3,28,0,38.32-7,3.6-2.46,22.56-21.95,25.36-26.06,1.39-2.05,3.17-4.57,4-5.6a62,62,0,0,0,3.37-5.25,69.86,69.86,0,0,1,4.9-7.12c5-6.35,6-10.84,2.72-12.11-.67-.26-4.88,3.84-5.71,5.56-4.77,10-4.65,9.85-12.47,14.2-1.78,1-4.35,2.5-5.71,3.35a25.52,25.52,0,0,1-3.61,2,24.23,24.23,0,0,0-3.29,1.69,66.82,66.82,0,0,1-6.81,3.22L175.1,311l-5.48-.69c-3-.38-7.17-1-9.25-1.44s-5.93-1.15-8.57-1.63-6.6-1.4-8.8-2.06-5.76-1.61-7.9-2.12c-2.93-.7-4.24-1.23-5.26-2.12a17,17,0,0,0-4.13-2.25c-3.89-1.49-4-1.59-5.57-6.05-2.17-6.14-2.15-6.31,1.07-7.34a58.37,58.37,0,0,0,6.07-3c2.56-1.43,5.38-2.88,6.27-3.24,2-.81,2.25-1.5,1.44-4.59-1-4-.27-4.57,2.81-2,2.6,2.15,5.71,3.31,7.51,2.81,2-.55,6.09-4.94,6.69-7.18.73-2.71.14-11-.95-13.36-1.6-3.41-11.6-11.81-14.07-11.83-1,0-4-1.9-6.28-3.94A5.64,5.64,0,0,0,127,237c-20.13-2.55-35.67,2.92-34.88,12.27.71,8.5,2.23,11.92,5,11.31,1.28-.28,4.48.78,4.48,1.48A6.29,6.29,0,0,1,100,264q-4.35,4,2.94,10.76c1.1,1,3.39,3.23,5.09,4.94,2.44,2.43,3.35,3.1,4.26,3.1,1.84,0,2.11.6,2.11,4.7a31,31,0,0,0,.66,6.38c.86,3.41.79,3.46-5.55,4.09-2.7.27-6.46.75-8.36,1.06a35.41,35.41,0,0,1-5.8.49,10.41,10.41,0,0,0-3.66.49c-1.65.72-2.28.37-3.89-2.14-.66-1-2.29-3.56-3.63-5.61a50,50,0,0,1-6.23-13.86c-1-4-1.44-15.45-.59-17.11a14.49,14.49,0,0,0,.82-3.72c.41-3.91,2.52-8.08,6.89-13.61,6.65-8.43,10.75-11.57,18.77-14.39,2-.68,5.1-1.89,7-2.66a78.71,78.71,0,0,1,8.4-2.73c7.9-2.06,13.7-3.68,15-4.19.66-.25,3.36-1,6-1.59,5.85-1.37,11-3.3,11.75-4.39s2.37-1.08,2.71-.21a1.27,1.27,0,0,1-.22,1.15c-.78,1,.54,1.56,5.76,2.67,3,.65,3.79,1,4.89,2.31L166,221l1.27-.76c1.27-.75,3.95-.06,3.95,1a18.28,18.28,0,0,0,3.1,2.71c5.89,4.53,7.58,6.74,7.63,9.94,0,1.66,1.88,6.51,2.49,6.51a54.36,54.36,0,0,1,6.59,5.38c.58.74,5.77,3.29,10,4.9a40.89,40.89,0,0,1,4.43,1.91,27.63,27.63,0,0,0,3.77,1.55,13.35,13.35,0,0,1,4.19,2.24,15.27,15.27,0,0,0,4.58,2.43c1.82.66,3.85,1.49,4.51,1.83a3.56,3.56,0,0,0,1.86.45c.88-.2,3.35,1,5.89,3a7.73,7.73,0,0,0,3,1.55,29.31,29.31,0,0,1,4,.68c3.68.84,28.41,1,33.8.18,1.76-.25,4.82-.64,6.8-.87,8.05-.89,10.5-1.34,12.6-2.27a17.38,17.38,0,0,1,5-1.21c2.63-.23,2.92-.35,4.8-2.08,2.59-2.38,5.39-4.31,6.72-4.64a3.38,3.38,0,0,0,1.52-.83c.48-.58.6-.56-6.07-.75a5.53,5.53,0,0,1-2.44-.7c-.74-.48-1.83-.63-4.19-.59-4.53.09-8.66-1.88-8.85-4.22-.17-2,.44-2.21,6.95-2.24,4.45,0,5.58-.17,7.79-1,1.42-.52,3.93-1.28,5.58-1.68,4-1,4.42-1.37,3.06-3-2.24-2.67.84-2.9,5.67-.43a14.87,14.87,0,0,0,2.67.74c1.1.22,4.25,1,7,1.68a49,49,0,0,0,9.77,1.54c3.29.19,4.82.43,4.93.78C340.65,245.75,335.23,250,326.09,255.91ZM157.2,338.4c0,2.77-16.7,1.64-27.73-1.87-6-1.9-6.46-2.38-4.49-4.35,1.56-1.56,3.45-1.33,7.16.87s5.69,2.56,8.53,1.59l1.93-.66,2.86,1.47c2.55,1.31,3,1.43,4.6,1.15C154.14,335.86,157.2,336.63,157.2,338.4Zm-4.61-13.16c.3-.94,1-1.09,1.73-.36s.58,1.44-.36,1.73S152.25,326.32,152.59,325.24Zm-14.19-5.65c.61-.38,1.15.59.63,1.11-.13.14-.46,0-.73-.24S137.93,319.89,138.4,319.59Zm7.82-9c-1.48,1.09-4.31.71-7.62-1a14.2,14.2,0,0,0-4.2-1.6,20.27,20.27,0,0,1-8.2-2.39c-3.79-1.83-3.76-1.83,2.35-.82,2.62.43,5,.87,5.4,1C145.61,309,147.47,309.71,146.22,310.63ZM165,330.39c1.19.45,3.44,3.39,3.44,4.49s-5.4,3.61-7.53,3.68c-1.75.05-1.75.05-.2-4.35.84-2.37,1.39-3.32,2.13-3.7C164,329.91,163.75,329.92,165,330.39Zm-.16-14.66v-1.3l3.7-.14c6.06-.23,6.88-.17,7,.56s-4,5.78-5.6,6.59C167.84,322.52,164.8,319.12,164.8,315.73ZM132.6,250.8a2.28,2.28,0,0,0,1.8-2.14q0-3.43,3.69-2a21.28,21.28,0,0,1,3.38,1.8,9.71,9.71,0,0,0,2,1.13c1.95,0,5.56,4.19,4.6,5.35-.44.54-3.43.28-4.52-.4a55.37,55.37,0,0,0-8.6-1.54C132.05,252.68,130.08,250.8,132.6,250.8Zm90.58-32.9c1.35-2.27,1.56-2.4,3.57-2.12,6.15.84,7.56,1.51,6.78,3.21s-.24,2.18,1.58,1.7c3.71-1,4,4.32.26,5.72-1.43.55-1.56.52-2.93-.64-1.65-1.39-2.64-1.16-2.64.59,0,5.24,8.73,1.79,10.18-4,.64-2.55,1-3,2.39-2.88,2.49.12,3.15,1.83,1.53,4-6.35,8.47-9.46,10.76-14.24,10.48-4.31-.25-5.25-.95-6.65-5-1.77-5.16-3-6.41-4.79-4.92-3,2.46,1.26,12,5.31,12,1.39,0,2.47.35,2.47.8s-1.66.76-2.74.34a20.81,20.81,0,0,0-3.55-.77c-4.14-.6-12.47-2.73-14.24-3.65a17.88,17.88,0,0,0-4.07-1.29L199,231l-.13-1.57c-.2-2.43,4.9-14.5,6.41-15.19.6-.27,11.88.07,13.85.42,1.57.28,2,1,1.27,2.34C219.16,219.32,221.83,220.18,223.18,217.9Zm.6-24.27a1,1,0,0,1,1.6-.06c.13.2-.15.49-.6.64C223.83,194.51,223.39,194.26,223.78,193.63Zm11.59,11.64c.58.07,1,.31,1,.53,0,.6-1.72.48-1.92-.13C234.37,205.3,234.63,205.18,235.37,205.27Zm14.23,18.62c0,.55-2.53,3.06-4.49,4.45-1.2.85-1.36.17-.25-1a25.85,25.85,0,0,0,2-2.5C248.2,222.75,249.6,222.29,249.6,223.89Zm-2-18.11c0-.35.18-.52.4-.38s.4.06.4-.18c0-.52,2.27-.56,2.59,0s-1.08,1.22-2.36,1.22C248,206.4,247.6,206.18,247.6,205.78ZM225.8,243.6c-.62,0-.79-.47-.34-.92s.94,0,.94.54C226.4,243.43,226.13,243.6,225.8,243.6Zm.45,6.1a7.72,7.72,0,0,0-.24,1.56,1,1,0,0,1-.6.88c-.56.21-.55-1,0-2.84C225.71,248.38,226.5,248.76,226.25,249.7ZM263.44,225c-.33.85-1.44,0-1.44-1.09,0-.89,1.13-1,1.46-.15A2.1,2.1,0,0,1,263.44,225Zm.45,3.24c.15.44-1.06,1.08-1.4.75a1.08,1.08,0,0,1,.06-.85A.69.69,0,0,1,263.89,228.28Zm2.91,25.12c0-.67.17-.7,1.53-.34.7.19.8.34.4.59C267.88,254.19,266.8,254.05,266.8,253.4Zm72.6-42.66c-.26-.24-.19-.5.2-.75.78-.49,1.49-.49,1.8,0S339.92,211.22,339.4,210.74Zm14-12c-5.85,5-14.43,8.43-23.51,9.47-8.1.92-9.75,1.25-14.13,2.77A34.68,34.68,0,0,1,311,212.4a16,16,0,0,0-2.84.68c-2.77.88-2.9.69-2.9-4.3,0-7.45-1.85-6.71-2.4,1-.39,5.33-.61,6-3.21,9.1-3.86,4.64-4.75,8.93-2.8,13.46,1.57,3.65.55,3.79-3.91.52s-9.61-8.63-11.09-11.5c-.66-1.27-1.7-3.08-2.32-4-2.93-4.46-2.72-5.48,1.21-5.88a28.31,28.31,0,0,0,10.21-2.69,19.94,19.94,0,0,1,5.3-1.72c3.47-.54,4.24-1.85,1.53-2.56-.84-.23-5.48-1.42-10.3-2.66-9.79-2.51-9.92-2.56-13.1-5.26A83.47,83.47,0,0,0,267,191.4a49.8,49.8,0,0,1-6.34-4.52c-1.46-1.54-4.66-3.68-5.51-3.68a10.3,10.3,0,0,1-2.56-1,24.72,24.72,0,0,0-8.47-2.78,18.93,18.93,0,0,1-4.73-1.3c-5.16-2.37-27-1.31-35.09,1.7-1.58.59-5.89.78-5.89.26s1.32-1.19,5.07-2.64c3.27-1.28,6-2.17,14.93-4.86a73.94,73.94,0,0,0,13.4-5.51,16.12,16.12,0,0,1,2.87-1.07c2.09-.54,10.14-6.53,13.82-10.28,6.16-6.28,13.51-18.21,11.61-18.84-.79-.26-.05-6.57,1-8.21.19-.31,2.31,0,3,.38a2.55,2.55,0,0,1,.3,1.51c0,1.59.63,2.18,2.66,2.49s3.77,1.37,7.34,4.55a30.35,30.35,0,0,0,4.6,3.48,9.63,9.63,0,0,1,3,2.76,42.06,42.06,0,0,0,3.48,4.14c2.53,2.63,3,3.75,2.55,5.83-1.95,8.66-.05,13.86,6.72,18.43a15.51,15.51,0,0,1,3.93,3.42c.58,1.12.66,1.15,1.34.54s1-.6,3.47-.07c1.51.33,3.53.7,4.49.83a10.93,10.93,0,0,1,3,.88,4.75,4.75,0,0,0,3.26.33c1.12-.17,3.51-.36,5.32-.43,3.35-.13,3.86-.31,7.91-2.77a6.54,6.54,0,0,1,2.39-1,12.18,12.18,0,0,0,5.41-2.23,6.15,6.15,0,0,1,1.87-1.15,9.07,9.07,0,0,0,2.38-1.65c1.74-1.59,3-1.76,3.93-.49,1.1,1.58.29,4-2.64,7.87-.74,1-2.24,3-3.34,4.6-3.26,4.62-6.61,6.23-15.74,7.57-4,.59-4.41.85-4.14,2.69.2,1.37.67,1.68,3.56,2.36,5.16,1.21,1.39,3.22-6,3.22-4,0-5.05,1.59-2.62,3.76,1.23,1.09,1.39,2.08.34,2-.31,0-1.28-.17-2.16-.32-4.05-.7-3.92,1.8.15,2.72,6,1.37,8.16.18,6.8-3.73-.62-1.77-.36-1.94,4.7-3,13.91-3.05,16.49-5.09,7.36-5.82-7.27-.59-8.57-1.75-3.2-2.86,7.15-1.49,7.93-2.07,15.54-11.78,3.57-4.56,3.52-4.57,7,2s5.43,11.68,5.71,15l.22,2.65Zm6.47-5.72c-.9,1.37-1.91,1.1-2.35-.62a74.69,74.69,0,0,0-8.2-19,7.13,7.13,0,0,1-1.47-4.48c0-1.77-.13-2.14-.9-2.49-1.35-.62-1.12-2.21.28-1.94.34.06.68.61.75,1.21s.26,1.1.42,1.1c1,0,6.47,7.31,8.77,11.85C359.69,183.68,361.08,191.1,359.82,193Zm9.79,20.18c-2.11,1.07-3.66,1-4.76-.14-3.76-4,.11-11.31,4.94-9.29C373.41,205.28,373.3,211.31,369.61,213.2Zm11.79-64.77c-2.89,1.75-3.2,2.56-1.26,3.37,1.73.72,2,1.19,1.94,3-.2,3.69-.43,4.19-2.33,5.2-2.16,1.15-2,.8-6.35,11.82-3.47,8.73-4.48,10.64-7.54,14.3-2.32,2.78-2.71,2.61-3.25-1.42a28.44,28.44,0,0,0-3.41-9.33c-1.95-3.55-2-3.75-.22-3.75,7.87,0,19-9.07,18-14.62-1.16-6.18-8.71-8.43-14.77-4.39-2.21,1.47-9.8,9-9.8,9.75s.61.57,1.2-.14c4.78-5.76,14.7-10,18.28-7.82,6,3.63.54,11.22-10.28,14.41a15.27,15.27,0,0,0-3.63,1.45,2.15,2.15,0,0,1-1.08.56c-.67,0-5.29-5.51-5.29-6.31a1.69,1.69,0,0,0-.8-1.2,1.64,1.64,0,0,1-.8-1.09,6.86,6.86,0,0,1,.8-2.1,6.8,6.8,0,0,0,.81-2.49,3.61,3.61,0,0,1,.6-1.79,2.78,2.78,0,0,0,.59-1.34c0-.74,2.67-4,6.06-7.36,2.81-2.8,8.35-5.92,10.52-5.92a14.73,14.73,0,0,0,3.32-.78,39.83,39.83,0,0,1,4.66-1.2,12.55,12.55,0,0,0,2.57-.62c.44-.44,2.8-.16,3.26.38s.22.86-1,2.06c-1.82,1.89-1.8,2.36.19,3.37C384.72,145.58,384.47,146.58,381.4,148.43Zm11.22-10.11c-.15,1.25-.33,3.36-.41,4.68a28.17,28.17,0,0,1-.56,4.2,18.52,18.52,0,0,0-.44,3.46,4.22,4.22,0,0,1-.8,2.6l-.8.94,0-3c0-1.65,0-3.54,0-4.2a8.44,8.44,0,0,1,.82-3.07l.87-1.87-1.05-1.8c-1.32-2.24-1.32-2.89-.05-4.77s2.07-1.91,2.43-.47A12.44,12.44,0,0,1,392.62,138.32Z" transform="translate(0.02 -22.84)"/></g><path class="cls-2" d="M268.82,251.35c-6.43,0-6.44,10,0,10S275.27,251.35,268.82,251.35Z" transform="translate(0.02 -22.84)"/><path class="cls-2" d="M268.62,226.16l-.63-4.75a5.44,5.44,0,0,0-1.46-3.53,5,5,0,0,0-7.07,0,4.81,4.81,0,0,0-1.47,3.53l.63,4.75a5.5,5.5,0,0,0,1.47,3.54,5,5,0,0,0,7.07,0A4.81,4.81,0,0,0,268.62,226.16Z" transform="translate(0.02 -22.84)"/><path class="cls-2" d="M253.78,197.58c-4.72.89-10.39,2.85-15.18,2.4-4.45-.41-7.13-4.34-9.53-7.73-3.69-5.21-12.36-.22-8.63,5.05,3.53,5,7.57,10.35,13.77,12.07,7.09,2,15.22-.83,22.23-2.15C262.75,206,260.08,196.39,253.78,197.58Z" transform="translate(0.02 -22.84)"/><path class="cls-2" d="M233.92,248.62a5,5,0,0,0-2.3-3c-.17-.09-.35-.17-.54-.25a4.49,4.49,0,0,0-.26-.54,5,5,0,0,0-9.14,1.2,6.81,6.81,0,0,0,0,3.77,7.51,7.51,0,0,0,1.86,3.11,7,7,0,0,0,6.89,1.85,5.23,5.23,0,0,0,3-2.3A5.08,5.08,0,0,0,233.92,248.62Z" transform="translate(0.02 -22.84)"/><path class="cls-2" d="M347.26,140a6.63,6.63,0,0,0,.2-2.41c-.41-4.69-5.06-7.7-9.52-7-5.17.82-8.54,6.55-14.18,3.23-4.46-2.62-7.06-7.88-11.47-10.81s-9.22,2.68-6.84,6.84c3.7,6.46,5.29,13.86,7.3,21,.37,1.3.72,2.81,1.14,4.35l-9.42,6.38c-5.31,3.58-.31,12.25,5,8.64l9.16-6.18a7.15,7.15,0,0,0,3.77,1.39c3.14.25,5-1.32,7.12-3.34,2.53-2.42,5.17-1.66,8.43-2.69a12.55,12.55,0,0,0,6.2-4.6c1.51-1.94,2.52-4.51,4.81-5.6C353.66,147,351.21,141.12,347.26,140Zm-26.16,3.59c.26.11.52.22.8.32a17.81,17.81,0,0,0,7.64.84c-1.11.67-2.21,1.38-3.3,2.1l-3.54,2.39C322.17,147.38,321.63,145.5,321.1,143.62Z" transform="translate(0.02 -22.84)"/></svg>